<svg xmlns="http://www.w3.org/2000/svg" height="24" viewBox="0 0 24 24" width="24"><defs><style>.s-1{fill:#aecbfa;}.s-2{fill:#669df6;}.s-3{fill:#4285f4;}</style></defs><g><path class="s-1" d="M12,2A10,10,0,0,0,2,12a10,10,0,0,0,10,10,10,10,0,0,0,10-10A10,10,0,0,0,12,2Zm0,18a8,8,0,1,1,8-8A8,8,0,0,1,12,20Z"/><path class="s-2" d="M12,6a6,6,0,1,0,6,6A6,6,0,0,0,12,6Zm0,10a4,4,0,1,1,4-4A4,4,0,0,1,12,16Z"/><rect class="s-3" x="11" y="9" width="2" height="6"/><path class="s-3" d="M11,13h2v2H11Z"/></g></svg>